<svg aria-hidden="true" style="position: absolute; width: 0; height: 0; overflow: hidden;" version="1.1" xmlns="http://www.w3.org/2000/svg" xmlns:xlink="http://www.w3.org/1999/xlink">
<defs>
<symbol id="check" viewBox="0 0 43 32">
    <path d="M40.997 0.781c1.041 1.041 1.041 2.73 0 3.771l-24.444 24.445c-0.5 0.5-1.178 0.781-1.886 0.781s-1.386-0.281-1.886-0.781l-11.111-11.111c-1.041-1.041-1.041-2.73 0-3.771s2.73-1.041 3.771 0l9.226 9.225 22.559-22.559c1.041-1.041 2.73-1.041 3.771 0z"></path>
</symbol>
<symbol id="close" viewBox="0 0 32 32">
    <path d="M24.849 7.151c0.469 0.469 0.469 1.228 0 1.697l-16 16c-0.469 0.469-1.228 0.469-1.697 0s-0.469-1.228 0-1.697l16-16c0.469-0.469 1.228-0.469 1.697 0z"></path>
    <path d="M7.151 7.151c0.469-0.469 1.228-0.469 1.697 0l16 16c0.469 0.469 0.469 1.228 0 1.697s-1.228 0.469-1.697 0l-16-16c-0.469-0.469-0.469-1.228 0-1.697z"></path>
</symbol>
<symbol id="arrow" viewBox="0 0 32 32">
    <path d="M7.56 11.433c-0.692 0.257-1.043 0.987-0.813 1.693 0.088 0.271 0.269 0.464 3.247 3.451 1.735 1.74 3.297 3.279 3.473 3.42 0.42 0.337 0.92 0.605 1.413 0.759 0.579 0.18 1.661 0.18 2.24 0 0.493-0.153 0.993-0.421 1.413-0.759 0.176-0.141 1.739-1.68 3.473-3.42 2.977-2.987 3.159-3.18 3.247-3.451 0.047-0.13 0.074-0.28 0.074-0.436 0-0.73-0.592-1.323-1.323-1.323-0.051 0-0.101 0.003-0.151 0.008l0.006-0.001c-0.168 0.019-0.321 0.060-0.464 0.123l0.010-0.004c-0.099 0.049-1.644 1.551-3.433 3.335-2.251 2.245-3.315 3.272-3.452 3.328-0.255 0.107-0.788 0.107-1.043 0-0.137-0.056-1.201-1.083-3.452-3.328-1.789-1.784-3.336-3.287-3.437-3.337-0.247-0.124-0.775-0.155-1.029-0.059z"></path>
</symbol>
<symbol id="tablet-burger" viewBox="0 0 32 32">
    <path d="M5.701 7.22c-0.517 0.185-0.807 0.588-0.807 1.118 0 0.49 0.17 0.785 0.626 1.078 0.157 0.101 0.406 0.103 12.826 0.118 14.193 0.017 12.922 0.054 13.326-0.385 0.54-0.586 0.382-1.477-0.33-1.858l-0.222-0.118-12.614-0.011c-10.218-0.010-12.65 0.002-12.806 0.058zM13.52 13.97c-0.562 0.087-0.987 0.568-0.987 1.147 0 0.008 0 0.016 0 0.024l-0-0.001c0 0.366 0.226 0.784 0.536 0.994l0.237 0.161 8.854 0.014c9.774 0.016 9.095 0.039 9.462-0.319 0.239-0.234 0.333-0.436 0.362-0.784 0.050-0.589-0.374-1.116-0.99-1.231-0.326-0.061-17.118-0.065-17.473-0.004zM5.6 20.832c-0.43 0.186-0.704 0.608-0.704 1.086 0 0.503 0.232 0.875 0.687 1.102 0.198 0.098 0.538 0.101 12.845 0.101h12.642l0.265-0.135c0.298-0.152 0.586-0.524 0.643-0.829 0.011-0.061 0.017-0.132 0.017-0.204 0-0.462-0.26-0.863-0.642-1.066l-0.007-0.003-0.274-0.137-12.642 0.002c-11.177 0.002-12.665 0.011-12.83 0.083z"></path>
</symbol>
<symbol id="mobile-burger" viewBox="0 0 32 32">
    <path d="M6 6.93c-0.445 0.128-0.801 0.434-0.994 0.835l-0.004 0.009c-0.067 0.162-0.106 0.349-0.106 0.546 0 0.019 0 0.037 0.001 0.056l-0-0.003c0 0.624 0.264 1.053 0.82 1.331l0.327 0.163h12.355c13.763 0 12.621 0.032 13.079-0.371 0.347-0.306 0.492-0.636 0.492-1.123 0-0.342-0.023-0.441-0.156-0.684-0.17-0.31-0.35-0.484-0.688-0.665l-0.219-0.117-12.374-0.008c-6.805-0.005-12.445 0.009-12.533 0.031zM13.44 13.977c-0.513 0.232-0.85 0.704-0.894 1.254-0.004 0.041-0.006 0.088-0.006 0.136 0 0.572 0.327 1.069 0.805 1.311l0.008 0.004 0.274 0.145h17.226l0.305-0.15c1.117-0.549 1.096-2.157-0.036-2.684l-0.269-0.125h-8.586c-8.518 0.001-8.589 0.002-8.827 0.109zM6.129 20.853c-1.206 0.207-1.667 1.727-0.773 2.551 0.458 0.422-0.794 0.387 13.177 0.371l12.48-0.015 0.267-0.178c0.344-0.23 0.542-0.492 0.648-0.855 0.205-0.707-0.135-1.437-0.828-1.779l-0.247-0.121-12.24-0.008c-6.732-0.004-12.35 0.012-12.484 0.034z"></path>
</symbol>
<symbol id="youtube" viewBox="0 0 32 32">
    <path d="M24.24 6c-1.36-0.080-4.16-0.16-8.4-0.16h-0.56c-4.080 0-6.8 0.080-8.16 0.24-1.84 0.16-3.12 0.64-3.84 1.28-0.64 0.56-1.12 1.6-1.28 2.96-0.080 0.88-0.16 2.72-0.16 5.52v0.4c0 2.64 0.080 4.48 0.24 5.36 0.24 1.28 0.64 2.24 1.44 2.8 0.8 0.64 2.16 1.040 4.080 1.2 1.36 0.080 4.16 0.16 8.4 0.16h0.56c4.080 0 6.8-0.080 8.16-0.24 1.84-0.16 3.12-0.64 3.84-1.28 0.64-0.56 1.12-1.6 1.28-2.96 0.080-0.88 0.16-2.72 0.16-5.52v-0.4c0-2.64-0.080-4.48-0.24-5.36-0.24-1.28-0.64-2.24-1.44-2.8-0.8-0.64-2.16-1.040-4.080-1.2zM21.12 15.84l-8.8 5.28v-10.56l8.8 5.28z"></path>
</symbol>
<symbol id="instagram" viewBox="0 0 32 32">
    <path d="M28.718 10.756c-0.016-1.074-0.215-2.14-0.596-3.145-0.667-1.716-2.024-3.073-3.743-3.737-0.994-0.373-2.044-0.573-3.108-0.596-1.368-0.061-1.801-0.078-5.273-0.078s-3.916 0-5.274 0.078c-1.062 0.023-2.113 0.223-3.106 0.596-1.719 0.664-3.078 2.021-3.743 3.737-0.374 0.992-0.576 2.041-0.596 3.101-0.061 1.367-0.080 1.8-0.080 5.265s0 3.909 0.080 5.265c0.021 1.062 0.222 2.109 0.596 3.104 0.667 1.714 2.024 3.071 3.744 3.735 0.989 0.386 2.040 0.605 3.106 0.639 1.369 0.061 1.803 0.080 5.274 0.080s3.916 0 5.274-0.080c1.062-0.021 2.112-0.221 3.108-0.595 1.719-0.666 3.076-2.022 3.743-3.737 0.374-0.994 0.574-2.041 0.596-3.104 0.061-1.365 0.080-1.798 0.080-5.265-0.003-3.466-0.003-3.906-0.082-5.264zM15.99 22.531c-3.631 0-6.572-2.936-6.572-6.561s2.941-6.561 6.572-6.561c3.628 0 6.572 2.936 6.572 6.561s-2.944 6.561-6.572 6.561zM22.824 10.696c-0.849 0-1.532-0.684-1.532-1.53s0.684-1.53 1.532-1.53c0.846 0 1.531 0.684 1.531 1.53s-0.685 1.53-1.531 1.53z"></path>
    <path d="M15.992 19.976c2.211 0 4.004-1.793 4.004-4.004s-1.793-4.004-4.004-4.004c-2.211 0-4.004 1.793-4.004 4.004s1.793 4.004 4.004 4.004z"></path>
</symbol>
<symbol id="facebook" viewBox="0 0 32 32">
    <path d="M19.52 4.64c0.24 0 0.48 0 0.96 0v3.6c-0.24 0-0.72 0-1.2 0s-0.96 0-1.2 0.24c-0.24 0.24-0.24 0.48-0.24 1.040 0 0.48 0 0.8 0 1.28h2.64v3.040h-2.64v13.2h-4.080v-13.28h-2.16v-3.040h2.16v-1.040c0-1.76 0.24-3.040 0.72-3.6 0.72-1.040 2.16-1.52 4.32-1.52 0.24 0.080 0.48 0.080 0.72 0.080z"></path>
</symbol>
</defs>
</svg>
